{
  "rudiment_patterns": [
    {
      "type": "rudiment",
      "category": "roll",
      "name": "Single Stroke Roll",
      "sticking": "RLRLRLRLRLRLRLRL",
      "tempo": 120,
      "complexity": 1,
      "style": "universal",
      "orchestration": "snare_only",
      "usage": "fill",
      "pattern": [
        {"hand": "R", "note": 38, "time": 0, "duration": 0.125, "velocity": 90},
        {"hand": "L", "note": 38, "time": 0.125, "duration": 0.125, "velocity": 85},
        {"hand": "R", "note": 38, "time": 0.25, "duration": 0.125, "velocity": 90},
        {"hand": "L", "note": 38, "time": 0.375, "duration": 0.125, "velocity": 85},
        {"hand": "R", "note": 38, "time": 0.5, "duration": 0.125, "velocity": 90},
        {"hand": "L", "note": 38, "time": 0.625, "duration": 0.125, "velocity": 85},
        {"hand": "R", "note": 38, "time": 0.75, "duration": 0.125, "velocity": 90},
        {"hand": "L", "note": 38, "time": 0.875, "duration": 0.125, "velocity": 85}
      ],
      "bars": 0.5,
      "description": "16th note single strokes on snare, foundational rudiment"
    },
    {
      "type": "rudiment",
      "category": "roll",
      "name": "Single Stroke Roll",
      "sticking": "RLRLRLRLRLRLRLRL",
      "tempo": 165,
      "complexity": 2,
      "style": "pop_punk",
      "orchestration": "full_kit_descending",
      "usage": "fill",
      "pattern": [
        {"hand": "R", "note": 50, "time": 0, "duration": 0.125, "velocity": 100},
        {"hand": "L", "note": 50, "time": 0.125, "duration": 0.125, "velocity": 95},
        {"hand": "R", "note": 47, "time": 0.25, "duration": 0.125, "velocity": 100},
        {"hand": "L", "note": 47, "time": 0.375, "duration": 0.125, "velocity": 95},
        {"hand": "R", "note": 45, "time": 0.5, "duration": 0.125, "velocity": 100},
        {"hand": "L", "note": 45, "time": 0.625, "duration": 0.125, "velocity": 95},
        {"hand": "R", "note": 38, "time": 0.75, "duration": 0.125, "velocity": 100},
        {"hand": "L", "note": 36, "time": 0.875, "duration": 0.125, "velocity": 95}
      ],
      "bars": 0.5,
      "description": "Tom-tom descent fill ending on kick, classic punk fill"
    },
    {
      "type": "rudiment",
      "category": "roll",
      "name": "Double Stroke Open Roll",
      "sticking": "RRLLRRLLRRLLRRLL",
      "tempo": 140,
      "complexity": 2,
      "style": "pop_punk",
      "orchestration": "snare_only",
      "usage": "fill",
      "pattern": [
        {"hand": "R", "note": 38, "time": 0, "duration": 0.125, "velocity": 100},
        {"hand": "R", "note": 38, "time": 0.125, "duration": 0.125, "velocity": 85},
        {"hand": "L", "note": 38, "time": 0.25, "duration": 0.125, "velocity": 100},
        {"hand": "L", "note": 38, "time": 0.375, "duration": 0.125, "velocity": 85},
        {"hand": "R", "note": 38, "time": 0.5, "duration": 0.125, "velocity": 100},
        {"hand": "R", "note": 38, "time": 0.625, "duration": 0.125, "velocity": 85},
        {"hand": "L", "note": 38, "time": 0.75, "duration": 0.125, "velocity": 100},
        {"hand": "L", "note": 38, "time": 0.875, "duration": 0.125, "velocity": 85}
      ],
      "bars": 0.5,
      "description": "Double stroke roll, accenting first of each pair"
    },
    {
      "type": "rudiment",
      "category": "roll",
      "name": "Five Stroke Roll",
      "sticking": "RRLL-R or LLRR-L",
      "tempo": 160,
      "complexity": 2,
      "style": "pop_punk",
      "orchestration": "snare_only",
      "usage": "fill",
      "pattern": [
        {"hand": "R", "note": 38, "time": 0, "duration": 0.0625, "velocity": 80},
        {"hand": "R", "note": 38, "time": 0.0625, "duration": 0.0625, "velocity": 75},
        {"hand": "L", "note": 38, "time": 0.125, "duration": 0.0625, "velocity": 80},
        {"hand": "L", "note": 38, "time": 0.1875, "duration": 0.0625, "velocity": 75},
        {"hand": "R", "note": 38, "time": 0.25, "duration": 0.25, "velocity": 100}
      ],
      "bars": 0.25,
      "description": "Quick roll resolving to accented note, great for punctuation"
    },
    {
      "type": "rudiment",
      "category": "roll",
      "name": "Six Stroke Roll",
      "sticking": "RLRLRR or LRLRLL",
      "tempo": 145,
      "complexity": 3,
      "style": "pop_punk",
      "orchestration": "snare_bass",
      "usage": "accent",
      "pattern": [
        {"hand": "R", "note": 38, "time": 0, "duration": 0.0833, "velocity": 90},
        {"hand": "L", "note": 38, "time": 0.0833, "duration": 0.0833, "velocity": 85},
        {"hand": "R", "note": 38, "time": 0.1666, "duration": 0.0833, "velocity": 90},
        {"hand": "L", "note": 38, "time": 0.25, "duration": 0.0833, "velocity": 85},
        {"hand": "R", "note": 38, "time": 0.3333, "duration": 0.0833, "velocity": 100},
        {"hand": "R", "note": 36, "time": 0.4166, "duration": 0.0833, "velocity": 100}
      ],
      "bars": 0.25,
      "description": "Six stroke roll ending with accented snare and kick"
    },
    {
      "type": "rudiment",
      "category": "diddle",
      "name": "Single Paradiddle",
      "sticking": "RLRR-LRLL",
      "tempo": 155,
      "complexity": 2,
      "style": "pop_punk",
      "orchestration": "snare_only",
      "usage": "rhythm",
      "pattern": [
        {"hand": "R", "note": 38, "time": 0, "duration": 0.125, "velocity": 95},
        {"hand": "L", "note": 38, "time": 0.125, "duration": 0.125, "velocity": 85},
        {"hand": "R", "note": 38, "time": 0.25, "duration": 0.125, "velocity": 95},
        {"hand": "R", "note": 38, "time": 0.375, "duration": 0.125, "velocity": 90},
        {"hand": "L", "note": 38, "time": 0.5, "duration": 0.125, "velocity": 95},
        {"hand": "R", "note": 38, "time": 0.625, "duration": 0.125, "velocity": 85},
        {"hand": "L", "note": 38, "time": 0.75, "duration": 0.125, "velocity": 95},
        {"hand": "L", "note": 38, "time": 0.875, "duration": 0.125, "velocity": 90}
      ],
      "bars": 0.5,
      "description": "Classic paradiddle pattern, versatile groover"
    },
    {
      "type": "rudiment",
      "category": "diddle",
      "name": "Single Paradiddle",
      "sticking": "RLRR-LRLL",
      "tempo": 140,
      "complexity": 3,
      "style": "pop_punk",
      "orchestration": "hihat_snare",
      "usage": "rhythm",
      "pattern": [
        {"hand": "R", "note": 42, "time": 0, "duration": 0.125, "velocity": 85},
        {"hand": "L", "note": 38, "time": 0.125, "duration": 0.125, "velocity": 100},
        {"hand": "R", "note": 42, "time": 0.25, "duration": 0.125, "velocity": 85},
        {"hand": "R", "note": 42, "time": 0.375, "duration": 0.125, "velocity": 80},
        {"hand": "L", "note": 42, "time": 0.5, "duration": 0.125, "velocity": 85},
        {"hand": "R", "note": 38, "time": 0.625, "duration": 0.125, "velocity": 100},
        {"hand": "L", "note": 42, "time": 0.75, "duration": 0.125, "velocity": 85},
        {"hand": "L", "note": 42, "time": 0.875, "duration": 0.125, "velocity": 80}
      ],
      "bars": 0.5,
      "description": "Paradiddle on hi-hat with snare accents, groove-oriented"
    },
    {
      "type": "rudiment",
      "category": "diddle",
      "name": "Double Paradiddle",
      "sticking": "RLRLRR-LRLRLL",
      "tempo": 150,
      "complexity": 3,
      "style": "pop_punk",
      "orchestration": "snare_only",
      "usage": "fill",
      "pattern": [
        {"hand": "R", "note": 38, "time": 0, "duration": 0.0833, "velocity": 95},
        {"hand": "L", "note": 38, "time": 0.0833, "duration": 0.0833, "velocity": 85},
        {"hand": "R", "note": 38, "time": 0.1666, "duration": 0.0833, "velocity": 95},
        {"hand": "L", "note": 38, "time": 0.25, "duration": 0.0833, "velocity": 85},
        {"hand": "R", "note": 38, "time": 0.3333, "duration": 0.0833, "velocity": 100},
        {"hand": "R", "note": 38, "time": 0.4166, "duration": 0.0833, "velocity": 90},
        {"hand": "L", "note": 38, "time": 0.5, "duration": 0.0833, "velocity": 95},
        {"hand": "R", "note": 38, "time": 0.5833, "duration": 0.0833, "velocity": 85},
        {"hand": "L", "note": 38, "time": 0.6666, "duration": 0.0833, "velocity": 95},
        {"hand": "R", "note": 38, "time": 0.75, "duration": 0.0833, "velocity": 85},
        {"hand": "L", "note": 38, "time": 0.8333, "duration": 0.0833, "velocity": 100},
        {"hand": "L", "note": 38, "time": 0.9166, "duration": 0.0833, "velocity": 90}
      ],
      "bars": 0.5,
      "description": "Extended paradiddle with six notes per phrase"
    },
    {
      "type": "rudiment",
      "category": "diddle",
      "name": "Paradiddle-Diddle",
      "sticking": "RLRRLL",
      "tempo": 135,
      "complexity": 3,
      "style": "singer_songwriter",
      "orchestration": "snare_toms",
      "usage": "fill",
      "pattern": [
        {"hand": "R", "note": 38, "time": 0, "duration": 0.0833, "velocity": 90},
        {"hand": "L", "note": 38, "time": 0.0833, "duration": 0.0833, "velocity": 85},
        {"hand": "R", "note": 47, "time": 0.1666, "duration": 0.0833, "velocity": 90},
        {"hand": "R", "note": 47, "time": 0.25, "duration": 0.0833, "velocity": 85},
        {"hand": "L", "note": 45, "time": 0.3333, "duration": 0.0833, "velocity": 90},
        {"hand": "L", "note": 45, "time": 0.4166, "duration": 0.0833, "velocity": 85}
      ],
      "bars": 0.25,
      "description": "Paradiddle-diddle across snare and toms"
    },
    {
      "type": "rudiment",
      "category": "flam",
      "name": "Flam",
      "sticking": "lR or rL",
      "tempo": 110,
      "complexity": 2,
      "style": "singer_songwriter",
      "orchestration": "snare_only",
      "usage": "accent",
      "pattern": [
        {"hand": "L", "note": 38, "time": 0, "duration": 0.03, "velocity": 60, "grace": true},
        {"hand": "R", "note": 38, "time": 0.03, "duration": 0.25, "velocity": 95}
      ],
      "bars": 0.25,
      "description": "Single flam - grace note followed by primary stroke"
    },
    {
      "type": "rudiment",
      "category": "flam",
      "name": "Flam Accent",
      "sticking": "lR-L-rL-R",
      "tempo": 125,
      "complexity": 3,
      "style": "singer_songwriter",
      "orchestration": "snare_only",
      "usage": "accent",
      "pattern": [
        {"hand": "L", "note": 38, "time": 0, "duration": 0.03, "velocity": 60, "grace": true},
        {"hand": "R", "note": 38, "time": 0.03, "duration": 0.22, "velocity": 100},
        {"hand": "L", "note": 38, "time": 0.25, "duration": 0.125, "velocity": 75},
        {"hand": "R", "note": 38, "time": 0.47, "duration": 0.03, "velocity": 60, "grace": true},
        {"hand": "L", "note": 38, "time": 0.5, "duration": 0.22, "velocity": 100},
        {"hand": "R", "note": 38, "time": 0.75, "duration": 0.125, "velocity": 75}
      ],
      "bars": 0.5,
      "description": "Flam with tap accent pattern"
    },
    {
      "type": "rudiment",
      "category": "flam",
      "name": "Flam Tap",
      "sticking": "lR-R-rL-L",
      "tempo": 105,
      "complexity": 3,
      "style": "singer_songwriter",
      "orchestration": "snare_only",
      "usage": "fill",
      "pattern": [
        {"hand": "L", "note": 38, "time": 0, "duration": 0.03, "velocity": 60, "grace": true},
        {"hand": "R", "note": 38, "time": 0.03, "duration": 0.22, "velocity": 95},
        {"hand": "R", "note": 38, "time": 0.25, "duration": 0.22, "velocity": 85},
        {"hand": "R", "note": 38, "time": 0.47, "duration": 0.03, "velocity": 60, "grace": true},
        {"hand": "L", "note": 38, "time": 0.5, "duration": 0.22, "velocity": 95},
        {"hand": "L", "note": 38, "time": 0.75, "duration": 0.22, "velocity": 85}
      ],
      "bars": 0.5,
      "description": "Flam followed by tap on same hand"
    },
    {
      "type": "rudiment",
      "category": "flam",
      "name": "Flamacue",
      "sticking": "lR-L-rL-R-L-R",
      "tempo": 100,
      "complexity": 4,
      "style": "singer_songwriter",
      "orchestration": "snare_only",
      "usage": "fill",
      "pattern": [
        {"hand": "L", "note": 38, "time": 0, "duration": 0.03, "velocity": 60, "grace": true},
        {"hand": "R", "note": 38, "time": 0.03, "duration": 0.22, "velocity": 95},
        {"hand": "L", "note": 38, "time": 0.25, "duration": 0.125, "velocity": 80},
        {"hand": "R", "note": 38, "time": 0.47, "duration": 0.03, "velocity": 60, "grace": true},
        {"hand": "L", "note": 38, "time": 0.5, "duration": 0.125, "velocity": 95},
        {"hand": "R", "note": 38, "time": 0.625, "duration": 0.125, "velocity": 80},
        {"hand": "L", "note": 38, "time": 0.75, "duration": 0.125, "velocity": 100},
        {"hand": "R", "note": 38, "time": 0.875, "duration": 0.125, "velocity": 90}
      ],
      "bars": 0.5,
      "description": "Classic flam rudiment with accent pattern"
    },
    {
      "type": "rudiment",
      "category": "drag",
      "name": "Drag (Ruff)",
      "sticking": "llR or rrL",
      "tempo": 115,
      "complexity": 2,
      "style": "singer_songwriter",
      "orchestration": "snare_only",
      "usage": "accent",
      "pattern": [
        {"hand": "L", "note": 38, "time": 0, "duration": 0.03, "velocity": 65, "grace": true},
        {"hand": "L", "note": 38, "time": 0.03, "duration": 0.03, "velocity": 70, "grace": true},
        {"hand": "R", "note": 38, "time": 0.06, "duration": 0.25, "velocity": 95}
      ],
      "bars": 0.25,
      "description": "Double grace note drag before primary stroke"
    },
    {
      "type": "rudiment",
      "category": "drag",
      "name": "Single Drag Tap",
      "sticking": "llR-L or rrL-R",
      "tempo": 120,
      "complexity": 3,
      "style": "singer_songwriter",
      "orchestration": "snare_only",
      "usage": "fill",
      "pattern": [
        {"hand": "L", "note": 38, "time": 0, "duration": 0.03, "velocity": 65, "grace": true},
        {"hand": "L", "note": 38, "time": 0.03, "duration": 0.03, "velocity": 70, "grace": true},
        {"hand": "R", "note": 38, "time": 0.06, "duration": 0.19, "velocity": 95},
        {"hand": "L", "note": 38, "time": 0.25, "duration": 0.125, "velocity": 85},
        {"hand": "R", "note": 38, "time": 0.47, "duration": 0.03, "velocity": 65, "grace": true},
        {"hand": "R", "note": 38, "time": 0.5, "duration": 0.03, "velocity": 70, "grace": true},
        {"hand": "L", "note": 38, "time": 0.53, "duration": 0.22, "velocity": 95},
        {"hand": "R", "note": 38, "time": 0.75, "duration": 0.125, "velocity": 85}
      ],
      "bars": 0.5,
      "description": "Drag followed by tap, alternating"
    },
    {
      "type": "rudiment",
      "category": "drag",
      "name": "Double Drag Tap",
      "sticking": "llR-llR-L",
      "tempo": 110,
      "complexity": 3,
      "style": "singer_songwriter",
      "orchestration": "snare_only",
      "usage": "fill",
      "pattern": [
        {"hand": "L", "note": 38, "time": 0, "duration": 0.03, "velocity": 65, "grace": true},
        {"hand": "L", "note": 38, "time": 0.03, "duration": 0.03, "velocity": 70, "grace": true},
        {"hand": "R", "note": 38, "time": 0.06, "duration": 0.19, "velocity": 95},
        {"hand": "L", "note": 38, "time": 0.22, "duration": 0.03, "velocity": 65, "grace": true},
        {"hand": "L", "note": 38, "time": 0.25, "duration": 0.03, "velocity": 70, "grace": true},
        {"hand": "R", "note": 38, "time": 0.28, "duration": 0.22, "velocity": 95},
        {"hand": "L", "note": 38, "time": 0.5, "duration": 0.25, "velocity": 100}
      ],
      "bars": 0.5,
      "description": "Two drags followed by accented tap"
    },
    {
      "type": "rudiment",
      "category": "drag",
      "name": "Single Ratamacue",
      "sticking": "llR-L-R-L",
      "tempo": 95,
      "complexity": 4,
      "style": "singer_songwriter",
      "orchestration": "snare_only",
      "usage": "fill",
      "pattern": [
        {"hand": "L", "note": 38, "time": 0, "duration": 0.03, "velocity": 65, "grace": true},
        {"hand": "L", "note": 38, "time": 0.03, "duration": 0.03, "velocity": 70, "grace": true},
        {"hand": "R", "note": 38, "time": 0.06, "duration": 0.19, "velocity": 95},
        {"hand": "L", "note": 38, "time": 0.25, "duration": 0.125, "velocity": 80},
        {"hand": "R", "note": 38, "time": 0.375, "duration": 0.125, "velocity": 85},
        {"hand": "L", "note": 38, "time": 0.5, "duration": 0.25, "velocity": 100}
      ],
      "bars": 0.5,
      "description": "Drag with triple stroke pattern, classic fill"
    },
    {
      "type": "rudiment",
      "category": "roll",
      "name": "Single Stroke Four",
      "sticking": "RLRL",
      "tempo": 175,
      "complexity": 1,
      "style": "pop_punk",
      "orchestration": "snare_crash",
      "usage": "fill",
      "pattern": [
        {"hand": "R", "note": 38, "time": 0, "duration": 0.125, "velocity": 95},
        {"hand": "L", "note": 38, "time": 0.125, "duration": 0.125, "velocity": 90},
        {"hand": "R", "note": 38, "time": 0.25, "duration": 0.125, "velocity": 95},
        {"hand": "L", "note": 38, "time": 0.375, "duration": 0.125, "velocity": 90},
        {"hand": "R", "note": 49, "time": 0.5, "duration": 0.5, "velocity": 110}
      ],
      "bars": 0.5,
      "description": "Four strokes ending with crash, quick transition fill"
    },
    {
      "type": "rudiment",
      "category": "roll",
      "name": "Triple Stroke Roll",
      "sticking": "RRRLLLRRRLLL",
      "tempo": 150,
      "complexity": 3,
      "style": "pop_punk",
      "orchestration": "snare_only",
      "usage": "fill",
      "pattern": [
        {"hand": "R", "note": 38, "time": 0, "duration": 0.0833, "velocity": 95},
        {"hand": "R", "note": 38, "time": 0.0833, "duration": 0.0833, "velocity": 85},
        {"hand": "R", "note": 38, "time": 0.1666, "duration": 0.0833, "velocity": 80},
        {"hand": "L", "note": 38, "time": 0.25, "duration": 0.0833, "velocity": 95},
        {"hand": "L", "note": 38, "time": 0.3333, "duration": 0.0833, "velocity": 85},
        {"hand": "L", "note": 38, "time": 0.4166, "duration": 0.0833, "velocity": 80},
        {"hand": "R", "note": 38, "time": 0.5, "duration": 0.0833, "velocity": 95},
        {"hand": "R", "note": 38, "time": 0.5833, "duration": 0.0833, "velocity": 85},
        {"hand": "R", "note": 38, "time": 0.6666, "duration": 0.0833, "velocity": 80},
        {"hand": "L", "note": 38, "time": 0.75, "duration": 0.0833, "velocity": 95},
        {"hand": "L", "note": 38, "time": 0.8333, "duration": 0.0833, "velocity": 85},
        {"hand": "L", "note": 38, "time": 0.9166, "duration": 0.0833, "velocity": 80}
      ],
      "bars": 0.5,
      "description": "Three strokes per hand, fast roll"
    },
    {
      "type": "rudiment",
      "category": "roll",
      "name": "Nine Stroke Roll",
      "sticking": "RRLLRRLLR or LLRRLLRRR",
      "tempo": 140,
      "complexity": 3,
      "style": "pop_punk",
      "orchestration": "snare_only",
      "usage": "fill",
      "pattern": [
        {"hand": "R", "note": 38, "time": 0, "duration": 0.0625, "velocity": 85},
        {"hand": "R", "note": 38, "time": 0.0625, "duration": 0.0625, "velocity": 80},
        {"hand": "L", "note": 38, "time": 0.125, "duration": 0.0625, "velocity": 85},
        {"hand": "L", "note": 38, "time": 0.1875, "duration": 0.0625, "velocity": 80},
        {"hand": "R", "note": 38, "time": 0.25, "duration": 0.0625, "velocity": 85},
        {"hand": "R", "note": 38, "time": 0.3125, "duration": 0.0625, "velocity": 80},
        {"hand": "L", "note": 38, "time": 0.375, "duration": 0.0625, "velocity": 85},
        {"hand": "L", "note": 38, "time": 0.4375, "duration": 0.0625, "velocity": 80},
        {"hand": "R", "note": 38, "time": 0.5, "duration": 0.25, "velocity": 100}
      ],
      "bars": 0.5,
      "description": "Eight note roll resolving to quarter note accent"
    },
    {
      "type": "rudiment",
      "category": "diddle",
      "name": "Single Paradiddle",
      "sticking": "RLRR-LRLL",
      "tempo": 90,
      "complexity": 4,
      "style": "singer_songwriter",
      "orchestration": "toms_orchestrated",
      "usage": "fill",
      "pattern": [
        {"hand": "R", "note": 50, "time": 0, "duration": 0.125, "velocity": 90},
        {"hand": "L", "note": 47, "time": 0.125, "duration": 0.125, "velocity": 85},
        {"hand": "R", "note": 50, "time": 0.25, "duration": 0.125, "velocity": 90},
        {"hand": "R", "note": 45, "time": 0.375, "duration": 0.125, "velocity": 85},
        {"hand": "L", "note": 47, "time": 0.5, "duration": 0.125, "velocity": 90},
        {"hand": "R", "note": 50, "time": 0.625, "duration": 0.125, "velocity": 85},
        {"hand": "L", "note": 47, "time": 0.75, "duration": 0.125, "velocity": 90},
        {"hand": "L", "note": 45, "time": 0.875, "duration": 0.125, "velocity": 85}
      ],
      "bars": 0.5,
      "description": "Paradiddle across toms, musical fill"
    },
    {
      "type": "rudiment",
      "category": "roll",
      "name": "Seven Stroke Roll",
      "sticking": "RRLLRRL or LLRRLLR",
      "tempo": 165,
      "complexity": 2,
      "style": "pop_punk",
      "orchestration": "snare_bass",
      "usage": "fill",
      "pattern": [
        {"hand": "R", "note": 38, "time": 0, "duration": 0.0625, "velocity": 85},
        {"hand": "R", "note": 38, "time": 0.0625, "duration": 0.0625, "velocity": 80},
        {"hand": "L", "note": 38, "time": 0.125, "duration": 0.0625, "velocity": 85},
        {"hand": "L", "note": 38, "time": 0.1875, "duration": 0.0625, "velocity": 80},
        {"hand": "R", "note": 38, "time": 0.25, "duration": 0.0625, "velocity": 85},
        {"hand": "R", "note": 38, "time": 0.3125, "duration": 0.0625, "velocity": 80},
        {"hand": "L", "note": 38, "time": 0.375, "duration": 0.125, "velocity": 100},
        {"hand": "R", "note": 36, "time": 0.5, "duration": 0.25, "velocity": 110}
      ],
      "bars": 0.5,
      "description": "Seven stroke roll ending with snare accent and kick"
    },
    {
      "type": "rudiment",
      "category": "flam",
      "name": "Flam Paradiddle",
      "sticking": "lR-L-rR-R or rL-R-lL-L",
      "tempo": 100,
      "complexity": 4,
      "style": "singer_songwriter",
      "orchestration": "snare_only",
      "usage": "fill",
      "pattern": [
        {"hand": "L", "note": 38, "time": 0, "duration": 0.03, "velocity": 60, "grace": true},
        {"hand": "R", "note": 38, "time": 0.03, "duration": 0.22, "velocity": 95},
        {"hand": "L", "note": 38, "time": 0.25, "duration": 0.125, "velocity": 80},
        {"hand": "R", "note": 38, "time": 0.47, "duration": 0.03, "velocity": 60, "grace": true},
        {"hand": "R", "note": 38, "time": 0.5, "duration": 0.22, "velocity": 95},
        {"hand": "R", "note": 38, "time": 0.75, "duration": 0.125, "velocity": 80}
      ],
      "bars": 0.5,
      "description": "Paradiddle with flams on accented notes"
    },
    {
      "type": "rudiment",
      "category": "flam",
      "name": "Swiss Army Triplet",
      "sticking": "lR-R-rL-L (in triplet)",
      "tempo": 95,
      "complexity": 5,
      "style": "singer_songwriter",
      "orchestration": "snare_only",
      "usage": "fill",
      "pattern": [
        {"hand": "L", "note": 38, "time": 0, "duration": 0.03, "velocity": 60, "grace": true},
        {"hand": "R", "note": 38, "time": 0.03, "duration": 0.13, "velocity": 95},
        {"hand": "R", "note": 38, "time": 0.1666, "duration": 0.0833, "velocity": 80},
        {"hand": "R", "note": 38, "time": 0.30, "duration": 0.03, "velocity": 60, "grace": true},
        {"hand": "L", "note": 38, "time": 0.33, "duration": 0.13, "velocity": 95},
        {"hand": "L", "note": 38, "time": 0.5, "duration": 0.0833, "velocity": 80}
      ],
      "bars": 0.5,
      "description": "Flams in triplet pattern, sophisticated rudiment"
    },
    {
      "type": "rudiment",
      "category": "drag",
      "name": "Lesson 25 (Double Drag)",
      "sticking": "llR-L-rrL-R",
      "tempo": 105,
      "complexity": 4,
      "style": "singer_songwriter",
      "orchestration": "snare_only",
      "usage": "fill",
      "pattern": [
        {"hand": "L", "note": 38, "time": 0, "duration": 0.03, "velocity": 65, "grace": true},
        {"hand": "L", "note": 38, "time": 0.03, "duration": 0.03, "velocity": 70, "grace": true},
        {"hand": "R", "note": 38, "time": 0.06, "duration": 0.19, "velocity": 95},
        {"hand": "L", "note": 38, "time": 0.25, "duration": 0.125, "velocity": 80},
        {"hand": "R", "note": 38, "time": 0.47, "duration": 0.03, "velocity": 65, "grace": true},
        {"hand": "R", "note": 38, "time": 0.5, "duration": 0.03, "velocity": 70, "grace": true},
        {"hand": "L", "note": 38, "time": 0.53, "duration": 0.22, "velocity": 95},
        {"hand": "R", "note": 38, "time": 0.75, "duration": 0.125, "velocity": 80}
      ],
      "bars": 0.5,
      "description": "Two single drags in sequence, classic exercise"
    },
    {
      "type": "rudiment",
      "category": "roll",
      "name": "Single Stroke Roll",
      "sticking": "RLRLRLRLRLRLRLRL",
      "tempo": 85,
      "complexity": 3,
      "style": "singer_songwriter",
      "orchestration": "toms_floor_to_high",
      "usage": "fill",
      "pattern": [
        {"hand": "R", "note": 45, "time": 0, "duration": 0.125, "velocity": 85},
        {"hand": "L", "note": 45, "time": 0.125, "duration": 0.125, "velocity": 80},
        {"hand": "R", "note": 47, "time": 0.25, "duration": 0.125, "velocity": 85},
        {"hand": "L", "note": 47, "time": 0.375, "duration": 0.125, "velocity": 80},
        {"hand": "R", "note": 50, "time": 0.5, "duration": 0.125, "velocity": 90},
        {"hand": "L", "note": 50, "time": 0.625, "duration": 0.125, "velocity": 85},
        {"hand": "R", "note": 38, "time": 0.75, "duration": 0.125, "velocity": 95},
        {"hand": "L", "note": 38, "time": 0.875, "duration": 0.125, "velocity": 90}
      ],
      "bars": 0.5,
      "description": "Ascending tom fill ending on snare, dramatic build"
    },
    {
      "type": "rudiment",
      "category": "roll",
      "name": "Thirteen Stroke Roll",
      "sticking": "RRLLRRLLRRLLR",
      "tempo": 130,
      "complexity": 3,
      "style": "pop_punk",
      "orchestration": "snare_crash",
      "usage": "fill",
      "pattern": [
        {"hand": "R", "note": 38, "time": 0, "duration": 0.0625, "velocity": 85},
        {"hand": "R", "note": 38, "time": 0.0625, "duration": 0.0625, "velocity": 80},
        {"hand": "L", "note": 38, "time": 0.125, "duration": 0.0625, "velocity": 85},
        {"hand": "L", "note": 38, "time": 0.1875, "duration": 0.0625, "velocity": 80},
        {"hand": "R", "note": 38, "time": 0.25, "duration": 0.0625, "velocity": 85},
        {"hand": "R", "note": 38, "time": 0.3125, "duration": 0.0625, "velocity": 80},
        {"hand": "L", "note": 38, "time": 0.375, "duration": 0.0625, "velocity": 85},
        {"hand": "L", "note": 38, "time": 0.4375, "duration": 0.0625, "velocity": 80},
        {"hand": "R", "note": 38, "time": 0.5, "duration": 0.0625, "velocity": 85},
        {"hand": "R", "note": 38, "time": 0.5625, "duration": 0.0625, "velocity": 80},
        {"hand": "L", "note": 38, "time": 0.625, "duration": 0.0625, "velocity": 85},
        {"hand": "L", "note": 38, "time": 0.6875, "duration": 0.0625, "velocity": 80},
        {"hand": "R", "note": 38, "time": 0.75, "duration": 0.125, "velocity": 100},
        {"hand": "R", "note": 49, "time": 0.875, "duration": 0.375, "velocity": 110},
        {"hand": "R", "note": 36, "time": 0.875, "duration": 0.375, "velocity": 110}
      ],
      "bars": 1,
      "description": "Long roll ending with crash and kick, big transition"
    },
    {
      "type": "rudiment",
      "category": "diddle",
      "name": "Triple Paradiddle",
      "sticking": "RLRLRLRR-LRLRLRLL",
      "tempo": 135,
      "complexity": 4,
      "style": "pop_punk",
      "orchestration": "snare_only",
      "usage": "fill",
      "pattern": [
        {"hand": "R", "note": 38, "time": 0, "duration": 0.0625, "velocity": 95},
        {"hand": "L", "note": 38, "time": 0.0625, "duration": 0.0625, "velocity": 85},
        {"hand": "R", "note": 38, "time": 0.125, "duration": 0.0625, "velocity": 95},
        {"hand": "L", "note": 38, "time": 0.1875, "duration": 0.0625, "velocity": 85},
        {"hand": "R", "note": 38, "time": 0.25, "duration": 0.0625, "velocity": 95},
        {"hand": "L", "note": 38, "time": 0.3125, "duration": 0.0625, "velocity": 85},
        {"hand": "R", "note": 38, "time": 0.375, "duration": 0.0625, "velocity": 100},
        {"hand": "R", "note": 38, "time": 0.4375, "duration": 0.0625, "velocity": 90},
        {"hand": "L", "note": 38, "time": 0.5, "duration": 0.0625, "velocity": 95},
        {"hand": "R", "note": 38, "time": 0.5625, "duration": 0.0625, "velocity": 85},
        {"hand": "L", "note": 38, "time": 0.625, "duration": 0.0625, "velocity": 95},
        {"hand": "R", "note": 38, "time": 0.6875, "duration": 0.0625, "velocity": 85},
        {"hand": "L", "note": 38, "time": 0.75, "duration": 0.0625, "velocity": 95},
        {"hand": "R", "note": 38, "time": 0.8125, "duration": 0.0625, "velocity": 85},
        {"hand": "L", "note": 38, "time": 0.875, "duration": 0.0625, "velocity": 100},
        {"hand": "L", "note": 38, "time": 0.9375, "duration": 0.0625, "velocity": 90}
      ],
      "bars": 0.5,
      "description": "Extended paradiddle with eight notes per phrase"
    },
    {
      "type": "rudiment",
      "category": "drag",
      "name": "Double Ratamacue",
      "sticking": "llR-L-rrL-R-L-R",
      "tempo": 88,
      "complexity": 5,
      "style": "singer_songwriter",
      "orchestration": "snare_toms",
      "usage": "fill",
      "pattern": [
        {"hand": "L", "note": 38, "time": 0, "duration": 0.03, "velocity": 65, "grace": true},
        {"hand": "L", "note": 38, "time": 0.03, "duration": 0.03, "velocity": 70, "grace": true},
        {"hand": "R", "note": 38, "time": 0.06, "duration": 0.19, "velocity": 90},
        {"hand": "L", "note": 38, "time": 0.25, "duration": 0.0833, "velocity": 80},
        {"hand": "R", "note": 47, "time": 0.44, "duration": 0.03, "velocity": 65, "grace": true},
        {"hand": "R", "note": 47, "time": 0.47, "duration": 0.03, "velocity": 70, "grace": true},
        {"hand": "L", "note": 47, "time": 0.5, "duration": 0.1666, "velocity": 90},
        {"hand": "R", "note": 47, "time": 0.6666, "duration": 0.0833, "velocity": 80},
        {"hand": "L", "note": 45, "time": 0.75, "duration": 0.125, "velocity": 95},
        {"hand": "R", "note": 45, "time": 0.875, "duration": 0.125, "velocity": 100}
      ],
      "bars": 0.5,
      "description": "Two drags with triplet pattern across toms"
    },
    {
      "type": "rudiment",
      "category": "flam",
      "name": "Pataflafla",
      "sticking": "lR-L-rL-R (flam-tap-flam-tap)",
      "tempo": 92,
      "complexity": 5,
      "style": "singer_songwriter",
      "orchestration": "snare_only",
      "usage": "fill",
      "pattern": [
        {"hand": "L", "note": 38, "time": 0, "duration": 0.03, "velocity": 60, "grace": true},
        {"hand": "R", "note": 38, "time": 0.03, "duration": 0.1666, "velocity": 95},
        {"hand": "L", "note": 38, "time": 0.1666, "duration": 0.0833, "velocity": 80},
        {"hand": "R", "note": 38, "time": 0.22, "duration": 0.03, "velocity": 60, "grace": true},
        {"hand": "L", "note": 38, "time": 0.25, "duration": 0.1666, "velocity": 95},
        {"hand": "R", "note": 38, "time": 0.4166, "duration": 0.0833, "velocity": 80}
      ],
      "bars": 0.25,
      "description": "Four-note flam pattern, syncopated feel"
    },
    {
      "type": "rudiment",
      "category": "roll",
      "name": "Double Stroke Roll",
      "sticking": "RRLLRRLL",
      "tempo": 170,
      "complexity": 2,
      "style": "pop_punk",
      "orchestration": "ride_snare_kick",
      "usage": "rhythm",
      "pattern": [
        {"hand": "R", "note": 51, "time": 0, "duration": 0.125, "velocity": 95},
        {"hand": "R", "note": 51, "time": 0.125, "duration": 0.125, "velocity": 85},
        {"hand": "L", "note": 38, "time": 0.25, "duration": 0.125, "velocity": 100},
        {"hand": "L", "note": 51, "time": 0.375, "duration": 0.125, "velocity": 85},
        {"hand": "R", "note": 51, "time": 0.5, "duration": 0.125, "velocity": 95},
        {"hand": "R", "note": 51, "time": 0.625, "duration": 0.125, "velocity": 85},
        {"hand": "L", "note": 38, "time": 0.75, "duration": 0.125, "velocity": 100},
        {"hand": "L", "note": 51, "time": 0.875, "duration": 0.125, "velocity": 85},
        {"hand": "K", "note": 36, "time": 0, "duration": 0.5, "velocity": 100},
        {"hand": "K", "note": 36, "time": 0.5, "duration": 0.5, "velocity": 100}
      ],
      "bars": 0.5,
      "description": "Double strokes on ride with snare backbeat and kick"
    },
    {
      "type": "rudiment",
      "category": "roll",
      "name": "Seventeen Stroke Roll",
      "sticking": "RRLLRRLLRRLLRRLLR",
      "tempo": 125,
      "complexity": 4,
      "style": "pop_punk",
      "orchestration": "snare_toms_crash",
      "usage": "fill",
      "pattern": [
        {"hand": "R", "note": 38, "time": 0, "duration": 0.0625, "velocity": 85},
        {"hand": "R", "note": 38, "time": 0.0625, "duration": 0.0625, "velocity": 80},
        {"hand": "L", "note": 38, "time": 0.125, "duration": 0.0625, "velocity": 85},
        {"hand": "L", "note": 38, "time": 0.1875, "duration": 0.0625, "velocity": 80},
        {"hand": "R", "note": 38, "time": 0.25, "duration": 0.0625, "velocity": 85},
        {"hand": "R", "note": 38, "time": 0.3125, "duration": 0.0625, "velocity": 80},
        {"hand": "L", "note": 38, "time": 0.375, "duration": 0.0625, "velocity": 85},
        {"hand": "L", "note": 38, "time": 0.4375, "duration": 0.0625, "velocity": 80},
        {"hand": "R", "note": 50, "time": 0.5, "duration": 0.0625, "velocity": 85},
        {"hand": "R", "note": 50, "time": 0.5625, "duration": 0.0625, "velocity": 80},
        {"hand": "L", "note": 50, "time": 0.625, "duration": 0.0625, "velocity": 85},
        {"hand": "L", "note": 50, "time": 0.6875, "duration": 0.0625, "velocity": 80},
        {"hand": "R", "note": 47, "time": 0.75, "duration": 0.0625, "velocity": 90},
        {"hand": "R", "note": 47, "time": 0.8125, "duration": 0.0625, "velocity": 85},
        {"hand": "L", "note": 45, "time": 0.875, "duration": 0.0625, "velocity": 90},
        {"hand": "L", "note": 45, "time": 0.9375, "duration": 0.0625, "velocity": 85},
        {"hand": "R", "note": 49, "time": 1.0, "duration": 0.5, "velocity": 110},
        {"hand": "R", "note": 36, "time": 1.0, "duration": 0.5, "velocity": 110}
      ],
      "bars": 1,
      "description": "Long roll across snare and toms ending with crash, epic fill"
    }
  ]
}
